# xmcd
#
# Track frame offsets:
# 150
# 15927
# 32417
# 52137
# 67030
# 87054
# 101880
# 120687
# 140807
# 162655
# 183390
#
# Disc length: 2705 seconds
#
#
# Revision: 0
# Processed by: cddbd v1.5.2PL0 Copyright (c) Steve Scherf et al.
# Submitted via: FreeRIP 2.945 
#
DISCID=980a8f0b
DTITLE=ROBERTO CARLOS - INOLVIDABLES
DYEAR=1992
DGENRE=Blues
TTITLE0=AMIGO
TTITLE1=DESAHOGO
TTITLE2=UN MILLON DE AMIGOS
TTITLE3=INOLVIDABLE
TTITLE4=LA DISTANCIA
TTITLE5=AMANTE A LA ANTIGUA
TTITLE6=LADY LAURA
TTITLE7=PROPUESTA
TTITLE8=UNA CASITA BLANCA
TTITLE9=EL DIA QUE ME QUIERAS
TTITLE10=AMADA AMANTE
EXTD=
EXTT0=
EXTT1=
EXTT2=
EXTT3=
EXTT4=
EXTT5=
EXTT6=
EXTT7=
EXTT8=
EXTT9=
EXTT10=
PLAYORDER=
